Coordinates
version=1
nRows=38
nColumns=12
inDegrees=yes

Units are S.I. units (second, meters, Newtons, ...)
Angles are in degrees

endheader
time	SC_y	SC_z	SC_x	AC_y	AC_z	AC_x	GH_y	GH_z	GH_yy	EL_x	PS_y
       0.0              -54.74          32.63            1.4          53.02         -15.54           7.84          14.92         -2.698           27.7          92.59          117.7
   0.02635              -54.74          32.63          1.405          53.02         -15.54           7.84           14.9         -2.697          27.69          92.59          117.7
   0.05269              -54.73          32.62           1.41          53.02         -15.54           7.84          14.88         -2.695          27.68          92.59          117.7
   0.07904              -54.73          32.62          1.416          53.02         -15.54           7.84          14.86         -2.694          27.67          92.59          117.7
    0.1054              -54.72          32.61          1.422          53.02         -15.53           7.84          14.84         -2.693          27.67           92.6          117.6
    0.1317              -54.72          32.61          1.428          53.02         -15.53           7.84          14.82         -2.692          27.66           92.6          117.6
    0.1581              -54.71           32.6          1.435          53.02         -15.53           7.84          14.79          -2.69          27.65           92.6          117.6
    0.1844              -54.71           32.6          1.442          53.02         -15.53           7.84          14.77         -2.689          27.64           92.6          117.6
    0.2108               -54.7          32.59           1.45          53.02         -15.53           7.84          14.74         -2.687          27.63          92.61          117.6
    0.2371               -54.7          32.59          1.458          53.02         -15.53           7.84           14.7         -2.685          27.62          92.61          117.6
    0.2635              -54.69          32.58          1.467          53.02         -15.53           7.84          14.67         -2.683           27.6          92.61          117.6
    0.2898              -54.68          32.57          1.477          53.02         -15.53           7.84          14.64         -2.681          27.59          92.62          117.5
    0.3161              -54.67          32.56          1.487          53.02         -15.53           7.84           14.6         -2.679          27.57          92.62          117.5
    0.3425              -54.67          32.55          1.498          53.02         -15.53           7.84          14.55         -2.676          27.56          92.62          117.5
    0.3688              -54.66          32.54           1.51          53.02         -15.53           7.84          14.51         -2.674          27.54          92.63          117.5
    0.3952              -54.65          32.53          1.524          53.02         -15.52           7.84          14.46         -2.671          27.52          92.63          117.5
    0.4215              -54.64          32.52          1.538          53.02         -15.52           7.84          14.41         -2.668           27.5          92.64          117.4
    0.4479              -54.62          32.51          1.553          53.02         -15.52           7.84          14.35         -2.664          27.48          92.64          117.4
    0.4742              -54.61           32.5           1.57          53.02         -15.52          7.841          14.28         -2.661          27.46          92.65          117.4
    0.5006               -54.6          32.48          1.589          53.03         -15.52          7.841          14.21         -2.656          27.43          92.66          117.3
    0.5269              -54.58          32.46          1.609          53.03         -15.52          7.841          14.14         -2.652           27.4          92.66          117.3
    0.5533              -54.56          32.45          1.632          53.03         -15.51          7.841          14.05         -2.647          27.37          92.67          117.3
    0.5796              -54.55          32.43          1.657          53.03         -15.51          7.841          13.96         -2.642          27.34          92.68          117.2
    0.6059              -54.52           32.4          1.684          53.03         -15.51          7.841          13.86         -2.636           27.3          92.69          117.2
    0.6323               -54.5          32.38          1.715          53.03         -15.51          7.841          13.74         -2.629          27.25           92.7          117.1
    0.6586              -54.47          32.35          1.749          53.03          -15.5          7.841          13.61         -2.622          27.21          92.72          117.0
     0.685              -54.45          32.32          1.787          53.04          -15.5          7.842          13.47         -2.613          27.15          92.73          117.0
    0.7113              -54.41          32.29           1.83          53.04          -15.5          7.842          13.31         -2.604          27.09          92.75          116.9
    0.7377              -54.38          32.25          1.879          53.04         -15.49          7.842          13.13         -2.593          27.02          92.76          116.8
     0.764              -54.33          32.21          1.934          53.04         -15.49          7.842          12.92         -2.581          26.95          92.78          116.7
    0.7904              -54.29          32.15          1.997          53.05         -15.48          7.843          12.68         -2.567          26.86          92.81          116.6
    0.8167              -54.23           32.1          2.069          53.05         -15.47          7.843          12.41         -2.552          26.75          92.83          116.5
     0.843              -54.17          32.03          2.153          53.06         -15.46          7.844           12.1         -2.534          26.64          92.86          116.3
    0.8694              -54.09          31.95           2.25          53.06         -15.46          7.844          11.74         -2.512           26.5           92.9          116.1
    0.8957              -54.01          31.86          2.363          53.07         -15.44          7.845          11.31         -2.488          26.34          92.94          115.9
    0.9221              -53.91          31.76          2.497          53.07         -15.43          7.845          10.81         -2.458          26.15          92.99          115.7
    0.9484              -53.78          31.63          2.656          53.08         -15.42          7.846          10.21         -2.424          25.93          93.05          115.4
    0.9748              -53.64          31.48          2.846          53.09          -15.4          7.847          9.497         -2.382          25.66          93.12          115.0
